# xmcd
#
# Track frame offsets: 
#        150
#        14775
#        35125
#        55875
#        76337
#        99975
#        122137
#        141037
#        158162
#        178662
#        200875
#        226525
#
# Disc length: 3254 seconds
#
# Revision: 3
# Processed by: cddbd v1.5.2PL0 Copyright (c) Steve Scherf et al.
# Submitted via: ExactAudioCopy v1.0b4
#
DISCID=a00cb40c
DTITLE=劉德華 - 因為愛
DYEAR=1996
DGENRE=Pop
TTITLE0=因為愛
TTITLE1=鐵了心愛你
TTITLE2=為了你乾杯
TTITLE3=如果看到她，請告訴我
TTITLE4=隨風而去
TTITLE5=朱顏記
TTITLE6=太多太多的抱歉
TTITLE7=該怎麼才知道
TTITLE8=愛不死
TTITLE9=男人眼淚
TTITLE10=願牽你的手
TTITLE11=保證
EXTD=
EXTT0=
EXTT1=
EXTT2=
EXTT3=
EXTT4=
EXTT5=
EXTT6=
EXTT7=
EXTT8=
EXTT9=
EXTT10=
EXTT11=
PLAYORDER=
